<?xml version="1.0" encoding="utf-8"?>
<!-- Generator: Adobe Illustrator 27.7.0, SVG Export Plug-In . SVG Version: 6.00 Build 0)  -->
<svg version="1.1" id="Layer_1" xmlns="http://www.w3.org/2000/svg" xmlns:xlink="http://www.w3.org/1999/xlink" x="0px" y="0px"
	 viewBox="0 0 350.2 530.2" style="enable-background:new 0 0 350.2 530.2;" xml:space="preserve">
<style type="text/css">
	.st0{fill:#A5997A;}
</style>
<g>
	<path class="st0" d="M309.9,205.9h18c12.3,0,22.2-10.1,22.2-22.5S340.2,161,328,161h-60.5v4.2H328c10,0,18.1,8.2,18.1,18.3
		s-8.1,18.3-18.1,18.3h-40.3c-34.5,0-62.6,28.4-62.6,63.2v44.9c-21.6,0.5-39.4,9.6-53.5,22c-3.1-8.1-6.7-16.4-10.5-25.2
		c-22-50.8-46.9-108.3,12.2-162c40.1-0.3,64.2-20,65.2-20.9l0.7-0.6V86.2l-2.2-0.4c-21.4-3.4-37-21.3-38-43h38.1
		c23.4,0,42.4-19.2,42.4-42.9h-4.2c0,21.3-17.2,38.7-38.2,38.7H91.8C70.7,38.7,53.6,21.3,53.6,0h-4.2c0,23.6,19,42.9,42.4,42.9h45.3
		C117.3,57.9,49,116.4,53.4,204c2.2,43.1,21.3,74,39.8,103.8c18.9,30.6,36.8,59.4,36.8,99.9h4.2c0-17.7,30.3-92,90.9-93.7v122.2
		l4.1,0.3c5.6-40.4,27.9-86.7,47.7-99l-2.1-3.4c57.4,53.3,71,194.4,71.2,196.1l4.2-0.2V265C350.2,238.1,333.5,215,309.9,205.9z
		 M144.2,42.9h50.7c0.9,23.3,17.5,42.7,40.2,46.9v31.6c-4.4,3.3-27.4,19.3-62.6,19.3c-42.7,0-73.7-19.1-89.6-31.8
		C106.9,69.4,139.8,45.9,144.2,42.9z M133.3,391.8c-3.9-33.5-19.8-59.2-36.5-86.1c-18.2-29.4-37.1-59.8-39.2-101.8
		c-1.8-35.7,8.8-66.5,23.2-91.3c15.8,12.5,45.7,30.7,86.6,32.2c-57.2,55-31.1,115.2-10.1,163.8c4,9.3,7.8,18.1,11,26.6
		C150.1,352.5,138.5,375.4,133.3,391.8z M229.3,415.3V314.1c17.6,0.6,32.6,8,45.5,19.9C257.4,344.8,238.4,379.9,229.3,415.3z
		 M346,499.1c-3.4-20.9-9.2-49.9-18.5-78.7c-23-71.1-56.9-109.2-98.3-110.5V265c0-32.6,26.2-59.1,58.4-59.1S346,232.5,346,265V499.1
		z"/>
	<path class="st0" d="M4.4,203.8c-2-38.8,8.4-76.1,30.9-110.9l-3.5-2.3C8.9,126.2-1.8,164.3,0.2,204c2.3,44.4,22.2,77.7,41.4,110
		c18.1,30.3,35.2,59,35.2,93.8H81c0-35.9-17.4-65.1-35.8-95.9C26.2,280,6.6,247.1,4.4,203.8z"/>
</g>
</svg>
