<?xml version="1.0" encoding="utf-8"?>
<!-- Generator: Adobe Illustrator 27.7.0, SVG Export Plug-In . SVG Version: 6.00 Build 0)  -->
<svg version="1.1" id="Layer_1" xmlns="http://www.w3.org/2000/svg" xmlns:xlink="http://www.w3.org/1999/xlink" x="0px" y="0px"
	 viewBox="0 0 370.7 495.7" style="enable-background:new 0 0 370.7 495.7;" xml:space="preserve">
<style type="text/css">
	.st0{fill:#A4987A;}
</style>
<path class="st0" d="M260.8,74c-31.3,21.1-50.6,56.3-51.6,94l-0.1,4.8c-0.4,17.1-0.9,35.5-3,54.6c0,0.3-0.1,0.6-0.1,0.9l0,0
	c-5.3,45.8-20.3,95.8-68,143.4l0,0l-63.4,63.4l2.5,2.5l185.3-185.3c24-24,55.8-37.1,89.7-37.1h15v66.5h-30.8c-24.3,0-48,10-65,27.3
	L107.1,477c-9.4,9.6-22.1,15-35.6,15.1c-13.5,0.1-26.2-5.1-35.7-14.7c-9.8-9.8-15-22.8-14.7-36.7c0.3-13.9,6.2-26.6,16.4-35.9
	l17.2-15.6c36.4-33,104-94.3,104-175.8c0-101-52.8-140.8-75.5-153.3l-2.6-1.4l0,3c-0.5,41.3-49.7,69.6-79,82.8L0,145.3l0.7,1.6
	c3.9,8.9,16,31.4,16.5,32.4l0.8,1.5l69.9-35c2.6,5.7,11.3,25.9,14.9,48.5c-61.4,43-93.2,80.4-85.9,153.1l0.3,3.1l2.5-1.8
	c33-24.2,88.3-73.9,88.3-135.2c0-34.5-17.5-70.5-17.7-70.8l-0.8-1.6l-70.1,35c-2.7-5-11-20.8-14.8-29c29.5-13.5,76.7-41.5,79.4-82.3
	c23.3,13.6,71.1,53.2,71.1,148.7c0,79.9-66.9,140.6-102.9,173.2l-17.2,15.6c-11,10-17.3,23.6-17.6,38.5
	c-0.4,14.8,5.2,28.8,15.7,39.3c10.2,10.2,23.6,15.7,38,15.7c0.1,0,0.2,0,0.3,0c14.5-0.1,28-5.8,38.1-16.2l164.3-168
	c16.3-16.7,39.1-26.3,62.4-26.3h34.3V0L260.8,74z M104.5,213.5c0,58.2-51.6,106.1-84.3,130.5c-5.9-68.7,23.5-103.5,83.2-145.6
	C104.1,203.3,104.5,208.4,104.5,213.5z M212.7,172.9l0.1-4.8c0.9-36.6,19.6-70.7,50-91.1L367.2,6.7v65.6c-4.6,2.3-9.4,4.5-14.2,6.9
	c-56.6,27.2-119.9,57.7-141.5,125.3C212.2,193.4,212.5,182.8,212.7,172.9z M209.5,228.9c12.7-82.9,83-116.7,145.1-146.6
	c4.3-2.1,8.5-4.1,12.6-6.1V142c-54.5,10.8-98.1,33.7-129.5,68.2c-15.1,16.6-25.8,33.9-33.5,49.9C206.5,249.4,208.2,239,209.5,228.9
	L209.5,228.9z M352.2,211.7c-34.8,0-67.6,13.6-92.2,38.2l-91.9,91.9c10.5-14.9,18.5-28.1,24.6-43.1l0.7-1.7
	c10-30.9,40.4-124.7,173.9-151.4v66.1H352.2z"/>
</svg>
