<?xml version="1.0" encoding="UTF-8"?><svg id="uuid-00cfdc6b-92fa-4c9b-ae9c-5892773512b3" xmlns="http://www.w3.org/2000/svg" width="689.1211" height="199.4911" viewBox="0 0 689.1211 199.4911"><defs><style>.uuid-24120102-6cd8-4bf6-ad27-15388338baff{fill:#b4a47e;}</style></defs><g id="uuid-b8028efe-9681-4520-865c-55cb6740f327"><path class="uuid-24120102-6cd8-4bf6-ad27-15388338baff" d="m249.3756,75.4495c0-9.9966.068-28.3336.068-36.4,0-.208.072-.276.276-.276h6.2043c.072,0,.208.068.276.206l17.581,39.9182c.068.206.48.206.552,0l17.993-39.9182c0-.138.068-.206.276-.206h6.2723c.208,0,.348.138.348.344v47.5706c0,.206-.14.344-.348.344h-6.0683c-.204,0-.272-.138-.272-.344v-40.6063c0-.346-.416-.414-.624-.138l-18.405,40.8823c-.068.138-.208.206-.276.206h-2.9642c-.14,0-.208-.068-.276-.206l-17.513-39.9182c-.208-.344-.616-.206-.616.07v39.7102c0,.206-.072.344-.28.344h-1.8601c-.204,0-.344-.138-.344-.344v-11.2386Zm68.2478-12.8907c1.9281-5.5163,3.9962-11.1686,6.1323-17.305l2.2041-6.2743c0-.138.072-.206.28-.206h6.1363c.136,0,.272.068.344.206l7.7204,22.3372c3.5162,10.1346,7.1684,20.6832,8.8245,25.3014.068.276-.072.414-.276.414h-6.4804c-.208,0-.276-.068-.276-.206-2.2081-6.2063-6.4124-18.615-6.9604-20.2691-.072-.138-.208-.208-.348-.208h-15.7889c-.208,0-.272.07-.344.208l-7.1684,20.2691c0,.138-.072.206-.276.206h-2.0001c-.276,0-.344-.138-.276-.414l8.5525-24.0593Zm16.2009,1.3781c.204,0,.344-.138.272-.414l-6.6884-19.3731c-.204-.274-.412-.274-.616,0l-6.8284,19.3731c-.068.276,0,.414.276.414h13.5848Zm22.4653,9.9966c.208-.07.344,0,.416.206,2.2041,6.8944,8.3405,11.2386,15.5089,11.2386,3.0362,0,6.6884-.828,8.8245-3.1022,1.5881-1.5861,2.2761-4.0002,1.7961-6.2063-.488-2.1361-1.9361-3.9282-3.5882-5.3763-2.8282-2.5501-6.2723-4.2742-9.6525-6.1363-3.3082-1.8601-6.6884-3.8602-9.0965-6.8244-2.4841-2.9642-3.9322-6.7564-2.8962-10.6166,1.6521-5.9983,9.2365-9.1005,15.0248-9.1005,7.1724,0,12.4127,4.5503,14.3448,11.2366.064.208,0,.276-.14.344l-.412.138c-.208.07-.344,0-.416-.138-1.8641-5.5143-7.0324-9.2365-12.8247-9.2365-3.7922,0-8.6165,1.8601-9.5125,6.0663-.48,1.7241.136,3.5842,1.0321,5.1703,1.0361,1.5861,2.3441,2.6881,3.7282,3.7922,2.8242,2.1361,5.9283,3.5842,8.9605,5.2383,3.0322,1.6561,5.9283,3.5162,8.3405,6.0683,2.2761,2.5501,3.9322,5.8603,3.7242,9.3745-.276,4.1382-3.0322,7.7224-6.6164,9.6525-2.6921,1.4481-5.6563,2.0001-8.6205,2.0001-9.1005,0-16.3409-3.9302-18.753-13.0987,0-.208.068-.346.208-.346.204-.206.412-.138.62-.344Zm34.8099-34.8159c0-.206.072-.344.28-.344h8.9605c7.4484,0,25.9214.138,32.0578.138.208.068.344.206.344.344v1.5161c0,.208-.136.276-.344.276h-16.8889c-.208,0-.344.07-.344.276,0,9.1705.068,34.1259.068,44.9505v.414c0,.206-.068.344-.276.344h-6.0683c-.204,0-.344-.138-.344-.344v-45.2945c0-.208-.068-.346-.276-.346h-16.8889c-.208,0-.28-.068-.28-.276v-1.6541Zm51.3589,0c0-.206.14-.344.344-.344h26.7495c.208,0,.344.138.344.344v1.8621c0,.206-.136.276-.344.276h-20.1291c-.208,0-.28.138-.28.344v18.8911c0,.206.072.344.28.344h15.8569c.204,0,.344.068.344.276v1.8601c0,.208-.14.346-.344.346h-15.7889c-.208,0-.348.068-.348.276v20.6131c0,.206.14.344.348.344h20.0611c.208,0,.344.07.344.276v1.8621c0,.206-.136.344-.344.344h-26.7495c-.204,0-.344-.138-.344-.344v-47.5706Zm37.2221,0c0-.206.072-.344.276-.344h16.3409c8.0644,0,18.473,1.9981,18.473,12.1327,0,10.0666-9.5805,11.9967-17.857,12.2027-.272,0-.408.276-.204.484l7.6524,9.8585,6.8964,9.1685c2.9602,3.7922,4.7523,4.8263,7.4444,5.0323.204,0,.344.07.344.276v.552c0,.206-.14.344-.344.344h-4.7563c-2.0721,0-3.5202.07-7.0324-3.0322-1.1041-1.0341-2.6881-2.5521-4.6883-4.9643-4.0682-4.6203-8.4125-9.6525-14.6168-17.719h-1.0321c-.208,0-.28.07-.28.276v23.3033c0,.206-.064.344-.272.344h-6.0683c-.204,0-.344-.138-.344-.344,0-6.8264.068-23.3033.068-36.194v-11.3766Zm6.6164,21.1652c0,.208.14.344.348.344h8.4125c8.6165,0,12.7527-3.3782,12.7527-9.7205,0-6.4104-4.2762-9.6505-12.7527-9.6505h-8.4125c-.208,0-.348.138-.348.344v18.683Zm36.81,13.6508c.208-.07.344,0,.416.206,2.2081,6.8944,8.3445,11.2386,15.5129,11.2386,3.0322,0,6.6884-.828,8.8245-3.1022,1.5841-1.5861,2.2721-4.0002,1.7921-6.2063-.484-2.1361-1.9321-3.9282-3.5842-5.3763-2.8282-2.5501-6.2723-4.2742-9.6525-6.1363-3.3082-1.8601-6.6884-3.8602-9.1005-6.8244-2.4801-2.9642-3.9282-6.7564-2.8962-10.6166,1.6561-5.9983,9.2405-9.1005,15.0288-9.1005,7.1724,0,12.4127,4.5503,14.3408,11.2366.068.208,0,.276-.136.344l-.416.138c-.208.07-.344,0-.416-.138-1.8601-5.5143-7.0324-9.2365-12.8207-9.2365-3.7922,0-8.6205,1.8601-9.5165,6.0663-.48,1.7241.14,3.5842,1.0361,5.1703,1.0361,1.5861,2.3441,2.6881,3.7242,3.7922,2.8242,2.1361,5.9283,3.5842,8.9605,5.2383,3.0322,1.6561,5.9283,3.5162,8.3445,6.0683,2.2721,2.5501,3.9282,5.8603,3.7202,9.3745-.272,4.1382-3.0322,7.7224-6.6164,9.6525-2.6881,1.4481-5.6563,2.0001-8.6165,2.0001-9.1045,0-16.3409-3.9302-18.753-13.0987,0-.208.068-.346.208-.346.204-.206.412-.138.616-.344Zm-249.1179,37.2621c15.0968.552,25.0934,11.4446,24.5414,26.1295-.552,14.6148-11.1686,24.6794-26.4055,24.1293-15.1688-.552-25.1614-11.5826-24.6094-26.1295.552-14.3388,11.0966-24.6814,26.4735-24.1293Zm16.8169,30.2657c1.1041-15.1668-4.4802-26.6815-17.097-27.9916-9.3765-.896-17.509,5.7223-18.9571,18.271-1.6521,13.0287,4.4842,26.3355,17.165,27.7835,9.3085,1.1021,18.133-5.5163,18.8891-18.063Zm18.265-28.6116c0-.206.136-.344.344-.344h26.7495c.204,0,.344.138.344.344v1.8621c0,.206-.14.276-.344.276h-20.1331c-.204,0-.272.138-.272.344v18.8911c0,.206.068.344.272.344h15.8569c.208,0,.344.068.344.276v1.8601c0,.208-.136.346-.344.346h-15.7849c-.208,0-.344.068-.344.276v23.0953c0,.206-.072.344-.28.344h-6.0643c-.208,0-.344-.138-.344-.344v-47.5706Zm81.0685-.344c7.9964,0,18.473,2.3441,18.473,12.0647,0,4.4802-2.4801,8.4105-7.9924,10.4106,7.4404,1.8601,10.7526,6.3424,10.7526,12.4787,0,7.9964-5.7923,13.3047-18.681,13.3047h-17.305c-.208,0-.344-.138-.344-.344v-47.5706c0-.206.136-.344.344-.344h14.7528Zm-8.4125,21.2332c0,.208.14.346.348.346h6.7524c8.5525,0,12.8247-3.1722,12.8247-9.5145,0-6.4124-4.2722-9.5825-12.8247-9.5825h-6.7524c-.208,0-.348.138-.348.344v18.407Zm9.8605,24.5434c8.3405,0,12.8207-4.0682,12.8207-11.0306,0-6.8944-4.7563-10.6866-12.8207-10.6866h-9.5125c-.208,0-.348.07-.348.276v21.0972c0,.206.14.344.348.344h9.5125Zm36.53-45.7765c.208,0,.276.138.276.344v29.2996c0,12.1347,5.6523,16.8909,13.0287,16.8909,7.7924,0,13.5848-5.6523,13.5848-16.9589v-29.2316c0-.206.068-.344.272-.344h1.8641c.208,0,.344.138.344.344v28.6796c0,13.5128-7.3084,19.9251-17.441,19.9251-9.6525,0-18.337-6.0683-18.337-20.2011v-28.4036c0-.206.136-.344.344-.344h6.0643Zm39.9142,35.16c.204-.07.344,0,.412.206,2.2041,6.8944,8.3405,11.2386,15.5089,11.2386,3.0362,0,6.6884-.828,8.8245-3.1022,1.5881-1.5861,2.2801-4.0002,1.7961-6.2063-.484-2.1361-1.9321-3.9282-3.5882-5.3763-2.8242-2.5501-6.2723-4.2742-9.6485-6.1363-3.3122-1.8601-6.6884-3.8602-9.1005-6.8244-2.4841-2.9642-3.9322-6.7564-2.8962-10.6166,1.6521-5.9983,9.2365-9.1005,15.0288-9.1005,7.1684,0,12.4087,4.5503,14.3408,11.2366.068.208,0,.276-.14.344l-.412.138c-.204.07-.344,0-.412-.138-1.8641-5.5143-7.0324-9.2365-12.8247-9.2365-3.7922,0-8.6165,1.8601-9.5125,6.0663-.484,1.7241.136,3.5842,1.0321,5.1703,1.0321,1.5861,2.3441,2.6881,3.7242,3.7922,2.8282,2.1361,5.9283,3.5842,8.9645,5.2383,3.0322,1.6561,5.9283,3.5162,8.3365,6.0683,2.2801,2.5501,3.9322,5.8603,3.7282,9.3745-.28,4.1382-3.0362,7.7224-6.6204,9.6525-2.6921,1.4481-5.6523,2.0001-8.6205,2.0001-9.0965,0-16.3369-3.9302-18.753-13.0987,0-.208.072-.346.208-.346.208-.206.416-.138.624-.344Zm43.0144-34.8839c0-.208.14-.276.344-.276h5.9963c.208,0,.344.068.344.276v47.6387c0,.206-.064.344-.272.344h-6.4124v-47.9827Zm19.0931.62c0-.62.276-.896.896-.896h5.4483c.272,0,.552.138.756.344l25.7814,35.574c.208.206.488.344.692.344.62,0,.896-.274.896-.896v-34.4699c0-.62.276-.896.896-.896h.692c.616,0,.896.276.896.896v46.4666c0,.62-.28.896-.896.896h-2.0721c-.344,0-.616-.138-.756-.344l-29.1656-40.2622c-.204-.206-.48-.344-.688-.344-.62,0-.896.274-.896.896v39.1582c0,.62-.272.896-.896.896h-.688c-.62,0-.896-.276-.896-.896v-46.4666Zm49.3547-.552c0-.206.14-.344.344-.344h26.7535c.204,0,.344.138.344.344v1.8621c0,.206-.14.276-.344.276h-20.1331c-.204,0-.276.138-.276.344v18.8911c0,.206.072.344.276.344h15.8569c.204,0,.344.068.344.276v1.8601c0,.208-.14.346-.344.346h-15.7889c-.208,0-.344.068-.344.276v20.6131c0,.206.136.344.344.344h20.0651c.204,0,.344.07.344.276v1.8621c0,.206-.14.344-.344.344h-26.7535c-.204,0-.344-.138-.344-.344v-47.5706Zm35.294,34.8159c.208-.07.344,0,.412.206,2.2081,6.8944,8.3445,11.2386,15.5129,11.2386,3.0322,0,6.6884-.828,8.8245-3.1022,1.5841-1.5861,2.2761-4.0002,1.7921-6.2063-.48-2.1361-1.9281-3.9282-3.5842-5.3763-2.8242-2.5501-6.2723-4.2742-9.6485-6.1363-3.3122-1.8601-6.6884-3.8602-9.1045-6.8244-2.4801-2.9642-3.9282-6.7564-2.8962-10.6166,1.6561-5.9983,9.2405-9.1005,15.0328-9.1005,7.1684,0,12.4087,4.5503,14.3368,11.2366.072.208,0,.276-.136.344l-.416.138c-.204.07-.344,0-.412-.138-1.8601-5.5143-7.0324-9.2365-12.8207-9.2365-3.7922,0-8.6205,1.8601-9.5165,6.0663-.484,1.7241.14,3.5842,1.0361,5.1703,1.0321,1.5861,2.3441,2.6881,3.7202,3.7922,2.8282,2.1361,5.9283,3.5842,8.9645,5.2383,3.0322,1.6561,5.9283,3.5162,8.3405,6.0683,2.2761,2.5501,3.9282,5.8603,3.7242,9.3745-.276,4.1382-3.0362,7.7224-6.6204,9.6525-2.6881,1.4481-5.6523,2.0001-8.6165,2.0001-9.1005,0-16.3369-3.9302-18.753-13.0987,0-.208.072-.346.208-.346.208-.206.416-.138.62-.344Zm41.1543,0c.208-.07.344,0,.412.206,2.2081,6.8944,8.3445,11.2386,15.5129,11.2386,3.0322,0,6.6884-.828,8.8245-3.1022,1.5841-1.5861,2.2761-4.0002,1.7921-6.2063-.48-2.1361-1.9281-3.9282-3.5842-5.3763-2.8242-2.5501-6.2723-4.2742-9.6485-6.1363-3.3122-1.8601-6.6884-3.8602-9.1045-6.8244-2.4801-2.9642-3.9282-6.7564-2.8962-10.6166,1.6561-5.9983,9.2405-9.1005,15.0328-9.1005,7.1684,0,12.4087,4.5503,14.3368,11.2366.072.208,0,.276-.136.344l-.416.138c-.204.07-.344,0-.412-.138-1.8601-5.5143-7.0324-9.2365-12.8207-9.2365-3.7922,0-8.6205,1.8601-9.5165,6.0663-.484,1.7241.14,3.5842,1.0361,5.1703,1.0321,1.5861,2.3441,2.6881,3.7202,3.7922,2.8282,2.1361,5.9283,3.5842,8.9645,5.2383,3.0322,1.6561,5.9283,3.5162,8.3405,6.0683,2.2761,2.5501,3.9282,5.8603,3.7242,9.3745-.276,4.1382-3.0362,7.7224-6.6204,9.6525-2.6881,1.4481-5.6523,2.0001-8.6165,2.0001-9.1005,0-16.3369-3.9302-18.753-13.0987,0-.208.072-.346.208-.346.208-.206.416-.138.62-.344ZM112.9195,9.4099c0,7.2642-5.9098,13.174-13.174,13.174s-13.1744-5.9098-13.1744-13.174v-1.8818H7.5281v92.2175c0,24.6323,9.5923,47.7901,27.0096,65.2078,17.4177,17.4173,40.5755,27.0096,65.2078,27.0096s47.7901-9.5923,65.2078-27.0096c17.4173-17.4177,27.0096-40.5755,27.0096-65.2078V7.5281h-79.0435v1.8818Zm-45.1272,121.6312c.0079.1151.0213.2287.0315.3432.0089.0976.0165.1954.027.2926.0203.1882.0453.3748.0715.5611.0114.081.0209.1626.0335.2432.0378.2412.0809.4806.1288.7184.0047.0244.0085.0492.0134.0735.0544.2648.1156.5272.1822.7875.0158.0615.0345.122.051.1833.0522.1946.1061.3884.165.5802.027.0875.0567.1738.0849.2608.0534.1639.1077.3272.1658.4889.0341.0948.0703.1885.1059.2825.0577.1517.1168.3028.1786.4524.04.0963.0809.192.1225.2874.0634.146.1292.2908.1967.4347.0441.0938.0882.1876.1341.2805.0713.1449.1453.288.2208.4304.0465.088.0922.1764.1402.2635.0831.1508.1698.2991.2574.4471.0443.0751.0872.1512.1327.2256.1132.1848.2308.3665.3507.5466.0232.035.0451.071.0685.1057.1451.2145.2954.4252.45.6324.0421.0565.0868.1109.1296.1668.1136.1485.2282.2964.3468.441.0607.0741.1237.1462.1855.2192.105.1238.2103.2469.3186.3676.0691.077.1398.1525.2105.2283.1054.1132.2117.2254.32.3358.0748.076.1505.151.2265.2257.1093.107.22.2124.3318.3164.078.0723.156.1443.2351.2152.116.1037.2339.205.3527.3055.0784.0665.1564.1334.2361.1985.1284.105.2597.2066.3915.3078.0727.0558.144.113.2176.1677.1662.1235.3354.2428.5061.3602.0419.0288.0825.0593.1247.0877.2139.1444.4317.2839.6524.4187.0601.0367.1221.0707.1827.1067.1619.0961.3243.1912.4898.2819.0837.046.169.0892.2534.1338.1457.0768.2916.1529.4397.2255.0928.0455.1867.0889.2804.1327.1432.0671.2869.1327.4323.1957.0973.0423.1954.0833.2936.1238.1461.0601.293.1181.4411.1742.0985.0373.1969.0742.2962.1098.153.0548.3076.1064.4626.1569.0961.0312.1918.0632.2885.0928.1676.0512.3369.0982.5067.1442.0861.0234.1713.0485.258.0705.2146.0546.4313.1039.6489.1502.0429.0092.0853.0202.1282.029.2643.054.5307.1015.7991.1431.0581.009.117.0151.1751.0234.1798.0259.3594.0522.5408.0724v11.3264c-14.6909-.9725-26.348-13.2272-26.348-28.1605,0-1.4501.1117-2.8947.3299-4.318l11.0029,5.5015Zm21.4061,21.043l10.5472,10.5472,10.547-10.5471c1.6491,2.2001,2.627,4.9306,2.627,7.8854,0,7.2642-5.9098,13.174-13.174,13.174s-13.1744-5.9098-13.1744-13.174c0-2.9548.9781-5.6855,2.6272-7.8855Zm2.6617-2.6617c2.2001-1.6492,4.9306-2.6272,7.8855-2.6272s5.6855.9781,7.8855,2.6272l-7.8855,7.8855-7.8855-7.8855Zm25.5394-2.8267c.2682-.0415.5345-.089.7985-.143.0441-.009.0874-.0204.1313-.0297.2166-.0461.4323-.0951.6457-.1494.0872-.0222.1731-.0475.2595-.071.1692-.0459.3379-.0927.5049-.1437.0973-.0298.1936-.0619.2903-.0933.1544-.0503.3084-.1017.4608-.1563.0996-.0356.1987-.0728.2976-.1103.1475-.056.294-.1137.4395-.1737.0989-.0407.1973-.0818.2952-.1244.1447-.0628.2881-.1283.4307-.195.0941-.0441.1885-.0877.2816-.1334.1479-.0725.2934-.1484.4388-.225.0849-.0447.1703-.088.2542-.1341.1644-.0903.3261-.1849.4872-.2804.0616-.0366.1247-.0712.1857-.1085.2208-.1347.4382-.274.652-.4184.0423-.0286.0829-.0592.1249-.0881.1705-.1173.3397-.2364.5055-.3597.0738-.0549.1457-.1123.2186-.1684.1315-.1011.2625-.2026.3909-.3074.0796-.0649.1575-.1318.2359-.1981.1187-.1006.2369-.202.3529-.3059.0792-.0708.1571-.1428.2349-.2151.1121-.104.2227-.2094.3318-.3164.0762-.0746.1518-.1497.2267-.2258.1081-.1101.2143-.2221.3196-.3351.0707-.0761.1418-.1518.2113-.2292.1083-.1207.2137-.2438.3184-.3676.0616-.0729.1245-.1447.1851-.2186.1185-.1449.2336-.293.3474-.4419.0427-.0558.087-.11.1292-.1663.1544-.2072.3046-.4177.4498-.632.0242-.036.0469-.0734.0709-.1096.1191-.1789.2361-.3595.3486-.5431.0453-.074.088-.1499.1323-.2247.0878-.1484.1747-.2973.2582-.4485.0477-.0866.0931-.1745.1394-.262.0754-.1429.1499-.2863.2213-.4315.0457-.0929.0898-.1865.1339-.2804.0675-.1439.1333-.2887.1967-.4347.0417-.0954.0825-.1911.1225-.2874.0618-.1497.1209-.3007.1786-.4524.0356-.094.0719-.1878.1059-.2825.0581-.1617.1124-.325.1658-.4889.0282-.087.0579-.1733.0849-.2608.0589-.1918.1128-.3856.165-.5802.0165-.0613.0352-.1217.051-.1833.0666-.2602.1278-.5226.1822-.7875.0049-.0243.0087-.0491.0134-.0735.0479-.2378.091-.4772.1288-.7184.0126-.0806.0221-.1622.0335-.2432.0262-.1863.0512-.373.0715-.5611.0104-.0972.0181-.1951.027-.2926.0102-.1145.0236-.2281.0315-.3432l11.0027-5.5014c.2184,1.4239.33,2.8685.33,4.3179,0,14.9333-11.6571,27.1879-26.3484,28.1605v-11.3264c.181-.0201.36-.0464.5392-.0722.0589-.0085.1184-.0147.177-.0237Zm70.7999-107.0794c-14.454,3.0905-25.2107,9.7549-32.5214,20.2076,3.104-17.3211,18.3273-24.6592,31.7924-31.1393.245-.1179.4856-.2341.729-.3514v11.283Zm0-15.4642c-.7786.378-1.564.7572-2.3611,1.1407-10.456,5.0321-22.8433,11.0008-29.5644,22.2454l.0191-.771c.1981-7.7896,4.1776-15.0412,10.6451-19.398l21.2613-14.3224v11.1053Zm-36.5289,52.1003l.1369.0443c2.1528-6.6425,8.5952-26.5063,36.392-32.8261v11.6168h-1.9062c-8.2615,0-16.0286,3.217-21.8702,9.0586l-13.2122,13.2123c.1587-.3689.3115-.7375.4598-1.1058Zm-9.7449,70.6428h32.7575c-1.9673,3.12-4.1374,6.1298-6.5064,9.011l-27.4478-7.2371c.4179-.5774.8174-1.1685,1.1967-1.7738Zm2.0197-3.7637c.5475-1.2062,1.0291-2.4482,1.4255-3.7282l36.1951-5.8279c-1.3491,3.2729-2.8986,6.4628-4.6396,9.5561h-32.981Zm39.1777-13.6196l-36.8073,5.9264c.228-1.3147.3807-2.6545.4425-4.0184l39.4784-12.9323c-.8005,3.75-1.8381,7.4317-3.1136,11.0242Zm3.9076-15.2453l-40.3339,13.2125c-.0928-1.2091-.2536-2.4102-.4813-3.5964l41.9254-20.9629c-.13,3.8306-.5024,7.6185-1.1103,11.3467Zm-113.6086,45.6303l-17.6296,16.7483c-3.4435-1.9781-6.7632-4.1969-9.9397-6.6475l21.1513-13.3959c1.9939,1.328,4.1447,2.4367,6.418,3.2951Zm4.152,1.2469c1.7184.392,3.4866.6504,5.2969.7525.0481.7405.1237,1.486.2298,2.2368l-14.004,18.7302c-3.3613-1.2389-6.6429-2.6833-9.83-4.3273l18.3073-17.3921Zm22.1715,26.3323c-4.011-4.2542-7.2274-8.8256-9.4777-13.3755,2.7066,1.834,5.9692,2.9065,9.4777,2.9065s6.7707-1.0726,9.4773-2.9064c-2.2503,4.5498-5.4665,9.1213-9.4773,13.3754Zm-15.5743-18.4894c.8224,2.7694,2.0112,5.5919,3.5709,8.4513.0033.0062.0069.0121.0102.0183l-3.7778,9.4449c-3.7835-.6771-7.5017-1.5991-11.1374-2.7551l11.3341-15.1594Zm6.0212,12.5052c1.6918,2.5538,3.4691,4.8072,5.1203,6.6987-2.5291-.124-5.0372-.3601-7.5222-.6939l2.4019-6.0048Zm19.1062-.0002l2.4019,6.005c-2.485.3337-4.9931.5699-7.5222.6939,1.6512-1.8916,3.4285-4.145,5.1203-6.6989Zm2.4399-4.0359c.0033-.0061.0067-.0119.01-.0179,1.5597-2.8595,2.7487-5.6821,3.5709-8.4516l11.3343,15.1598c-3.6357,1.156-7.3536,2.0779-11.1372,2.755l-3.778-9.4453Zm4.6516-13.3233c.1059-.7506.1816-1.496.2296-2.2363,1.8105-.102,3.5787-.3605,5.2973-.7525l18.3073,17.3921c-3.1873,1.644-6.4688,3.0885-9.8304,4.3274l-14.0038-18.7307Zm9.6787-4.2358c2.2735-.8584,4.4241-1.9671,6.418-3.2951l21.1515,13.3959c-3.1764,2.4506-6.4964,4.6694-9.9399,6.6474l-17.6296-16.7483Zm-73.336-28.4767c.0618,1.3638.2145,2.7036.4423,4.0182l-36.8071-5.9264c-1.2755-3.5926-2.3131-7.2742-3.1136-11.0242l39.4784,12.9325Zm1.3873,7.9831c.3962,1.2801.8781,2.522,1.4255,3.7283H22.5648c-1.741-3.0934-3.2904-6.2833-4.6396-9.5561l36.1951,5.8279Zm3.445,7.4919c.3795.6054.7788,1.1965,1.1967,1.7739l-27.4476,7.2371c-2.369-2.8811-4.5392-5.891-6.5064-9.011h32.7573Zm-4.7711-19.4159l-40.3337-13.2127c-.6079-3.7283-.9803-7.5162-1.1103-11.3468l41.9254,20.9629c-.2278,1.1858-.3885,2.387-.4815,3.5966Zm-18.7434,31.5983l27.3542-7.2125c.7615.8089,1.5644,1.5773,2.4055,2.3036l-21.0483,13.3307c-1.9129-1.6168-3.7713-3.3163-5.5628-5.1078-1.0817-1.0817-2.1303-2.1874-3.1487-3.3141Zm128.241,3.3141c-1.7914,1.7914-3.6498,3.491-5.5628,5.1078l-21.0485-13.3308c.8411-.7263,1.6439-1.4947,2.4055-2.3036l27.3544,7.2125c-1.0183,1.1267-2.0669,2.2324-3.1487,3.3141ZM183.919,11.2918l-19.0841,12.8557c-7.4757,5.0362-12.0755,13.4186-12.3047,22.4236l-.0268,1.0823c-.0951,3.8713-.2005,8.0273-.6967,12.3488-.0004.003-.0012.0058-.0016.0087h.0006c-1.1627,10.1115-4.4818,21.134-14.9241,31.5764h.0002s-14.3112,14.3114-14.3112,14.3114l2.6617,2.6617,41.8524-41.8528c5.1307-5.1307,11.9526-7.9566,19.2086-7.9566h1.9062v12.0558h-5.4734c-5.8838,0-11.6183,2.4123-15.7324,6.6187l-37.1139,37.9442c-1.8535,1.8948-4.334,2.9464-6.985,2.961-.0185.0004-.0374.0004-.0559.0004-2.6298,0-5.1-1.0232-6.961-2.8842-1.924-1.9236-2.9468-4.4813-2.8806-7.2016.0666-2.7215,1.2131-5.2272,3.2288-7.0559l3.8751-3.514c8.382-7.5998,23.9844-21.7454,23.9844-40.8063,0-23.6056-12.4643-32.9828-17.823-35.919l-2.7455-1.5041-.0406,3.1303c-.1142,8.8278-11.9105,15.0987-16.9766,17.3847l-1.6983.7664.7491,1.7058c.9078,2.0681,3.6569,7.1981,3.7735,7.4155l.8645,1.6113,15.6868-7.8432c.744,1.8184,1.8554,4.8763,2.4962,8.2662-13.8234,9.8207-20.9557,18.554-19.2614,35.3959l.3297,3.2776,2.6561-1.9484c17.8754-13.1145,20.5441-25.5146,20.5441-31.739,0-8.1307-3.9799-16.3071-4.1492-16.6513l-.8365-1.6987-15.8707,7.9349c-.5888-1.1178-1.3742-2.6242-1.998-3.8783,6.3654-3.1095,15.1137-8.7384,17.0609-16.8199,5.3339,3.794,13.4753,12.6183,13.4753,31.1132,0,17.3925-14.7986,30.8095-22.7493,38.0178l-3.8751,3.5147c-2.7865,2.5274-4.3714,5.9905-4.4631,9.7518-.0914,3.7601,1.3226,7.2957,3.9819,9.955,2.5726,2.5726,5.987,3.9866,9.6218,3.9866.026,0,.052-.0004.0776-.0004,3.664-.0201,7.0929-1.4738,9.6549-4.0933l37.1139-37.9442c3.4108-3.4868,8.1642-5.4868,13.0416-5.4868h5.4734v24.0118l-60.2236,30.1122v1.163c0,7.2642-5.9102,13.174-13.1744,13.174h-1.8818v6.3085c-3.1075-3.8441-7.8574-6.3085-13.174-6.3085s-10.0667,2.4644-13.1744,6.3086v-6.3086h-1.8818c-7.2642,0-13.174-5.9098-13.174-13.174v-1.163l-60.2236-30.1122V11.2918h71.6194c.9393,8.4572,8.1307,15.0558,16.8344,15.0558s15.8947-6.5986,16.8341-15.0558h67.3394Zm-55.0539,44.8768c.0075.2339.0114.4675.0114.7007,0,11.2815-9.1906,20.8746-16.2366,26.5705-.2536-12.2488,5.4048-19.3224,16.2252-27.2711Zm-38.0198-.5872c0-3.1414-2.5356-5.6971-5.6526-5.6971h-11.7199v3.4919h11.7199c1.1914,0,2.1607.9894,2.1607,2.2052s-.9693,2.2052-2.1607,2.2052h-7.8132c-7.4253,0-13.4658,6.1008-13.4658,13.5997v7.4395c-3.3487.346-6.1496,1.6677-8.4428,3.357-.4336-1.0539-.8966-2.1284-1.3791-3.2412-4.2349-9.7682-8.6012-19.8632,1.6656-29.5274,7.9318-.2249,12.7465-4.1737,12.953-4.3467l.6258-.5234v-8.959l-1.5664-.2513c-3.0338-.4846-5.3639-2.7551-6.0407-5.6644h5.8611c5.2709,0,9.5592-4.328,9.5592-9.6486h-3.4919c0,3.3946-2.7219,6.1567-6.0673,6.1567h-28.1644c-3.3454,0-6.0669-2.7621-6.0669-6.1567h-3.4919c0,5.3206,4.2879,9.6486,9.5588,9.6486h5.0096c-5.5,4.9211-14.5367,15.307-13.7945,29.9513.4415,8.7081,4.2402,14.836,7.9145,20.7623,3.5675,5.7554,6.9377,11.1913,6.9377,18.6611h3.4919c0-3.0378,4.9763-15.3807,14.9286-16.7009v22.2314l3.4754.2403c.9555-6.8747,4.5927-14.8943,7.9093-17.7092,2.7054,3.0126,5.3981,7.7376,7.7479,14.9987,3.3214,10.2634,4.3048,20.7017,4.3143,20.8057l3.4848-.1587v-51.3651c0-4.0659-1.7782-7.7182-4.5876-10.2125,2.6091-.5038,4.5876-2.8182,4.5876-5.5924Zm-40.8492-25.912h8.1726c.654,4.1873,3.625,7.6117,7.6756,8.8026v4.3623c-1.447.9555-5.3036,3.0988-10.792,3.0988-7.0917,0-12.4324-2.8601-15.5668-5.1401,4.0236-6.1739,9.0614-10.0745,10.5105-11.1237Zm-2.1,61.7163c-1.3895-4.8046-3.909-8.8692-6.3725-12.8427-3.5994-5.8058-6.9988-11.2898-7.3946-19.0987-.3039-5.995,1.2875-11.2528,3.5803-15.6255,2.9588,2.1001,7.5316,4.5563,13.4471,5.346-9.1492,10.6802-4.2607,21.9584-.2686,31.166.6487,1.4962,1.2649,2.9236,1.8005,4.2931-.8417.8702-1.5815,1.7613-2.2168,2.6166-1.0047,1.3529-1.8657,2.766-2.5754,4.1453Zm19.5099,1.3663v-10.3808c1.6565.2718,3.4667.9661,5.3221,2.3564-1.976,1.8255-3.8212,4.7408-5.3221,8.0244Zm19.9471-21.3657v32.839c-3.2253-11.4154-9.2043-24.1384-19.9471-25.3885v-7.4505c0-5.5734,4.4742-10.1074,9.9735-10.1074s9.9735,4.534,9.9735,10.1074Zm-63.5312-11.9424c-.3667-7.2284,1.5782-14.1921,5.781-20.6966l-2.9334-1.8952c-4.6085,7.1327-6.74,14.7935-6.3355,22.7686.4529,8.9373,4.4001,15.5477,8.2173,21.9404,3.4119,5.714,6.6348,11.1114,6.6348,17.4831h3.4919c0-7.3351-3.4624-13.1342-7.1283-19.2736-3.5982-6.0259-7.319-12.2571-7.7278-20.3267ZM105.3918,0v9.4099c0,3.113-2.5329,5.6459-5.6463,5.6459s-5.6463-2.5329-5.6463-5.6459V0H0v99.7456c0,26.643,10.3753,51.6916,29.2148,70.5307,18.8392,18.8395,43.8878,29.2148,70.5307,29.2148s51.6916-10.3753,70.5307-29.2148c18.8395-18.8392,29.2148-43.8878,29.2148-70.5307V0h-94.0993Zm62.2232,167.615c-18.1286,18.1283-42.2316,28.1124-67.8695,28.1124s-49.7408-9.9842-67.8695-28.1124C13.7478,149.4864,3.7637,125.3834,3.7637,99.7456V3.7637h86.572v5.6463c0,5.1886,4.2213,9.4095,9.4099,9.4095s9.4099-4.2209,9.4099-9.4095V3.7637h86.572v95.9819c0,25.6378-9.9842,49.7408-28.1124,67.8695Z"/></g></svg>