<?xml version="1.0" encoding="utf-8"?>
<!-- Generator: Adobe Illustrator 27.7.0, SVG Export Plug-In . SVG Version: 6.00 Build 0)  -->
<svg version="1.1" id="Layer_1" xmlns="http://www.w3.org/2000/svg" xmlns:xlink="http://www.w3.org/1999/xlink" x="0px" y="0px"
	 viewBox="0 0 689.1 199.5" style="enable-background:new 0 0 689.1 199.5;" xml:space="preserve">
<style type="text/css">
	.st0{fill:#B4A47E;}
</style>
<path class="st0" d="M249.4,75.4c0-10,0.1-28.3,0.1-36.4c0-0.2,0.1-0.3,0.3-0.3h6.2c0.1,0,0.2,0.1,0.3,0.2l17.6,39.9
	c0.1,0.2,0.5,0.2,0.6,0l18-39.9c0-0.1,0.1-0.2,0.3-0.2h6.3c0.2,0,0.3,0.1,0.3,0.3v47.6c0,0.2-0.1,0.3-0.3,0.3h-6.1
	c-0.2,0-0.3-0.1-0.3-0.3V46.1c0-0.3-0.4-0.4-0.6-0.1l-18.4,40.9c-0.1,0.1-0.2,0.2-0.3,0.2h-3c-0.1,0-0.2-0.1-0.3-0.2l-17.5-39.9
	c-0.2-0.3-0.6-0.2-0.6,0.1v39.7c0,0.2-0.1,0.3-0.3,0.3h-1.9c-0.2,0-0.3-0.1-0.3-0.3V75.4z M317.6,62.6c1.9-5.5,4-11.2,6.1-17.3
	L326,39c0-0.1,0.1-0.2,0.3-0.2h6.1c0.1,0,0.3,0.1,0.3,0.2l7.7,22.3c3.5,10.1,7.2,20.7,8.8,25.3c0.1,0.3-0.1,0.4-0.3,0.4h-6.5
	c-0.2,0-0.3-0.1-0.3-0.2c-2.2-6.2-6.4-18.6-7-20.3c-0.1-0.1-0.2-0.2-0.3-0.2h-15.8c-0.2,0-0.3,0.1-0.3,0.2l-7.2,20.3
	c0,0.1-0.1,0.2-0.3,0.2h-2c-0.3,0-0.3-0.1-0.3-0.4L317.6,62.6z M333.8,63.9c0.2,0,0.3-0.1,0.3-0.4l-6.7-19.4c-0.2-0.3-0.4-0.3-0.6,0
	L320,63.5c-0.1,0.3,0,0.4,0.3,0.4H333.8z M356.3,73.9c0.2-0.1,0.3,0,0.4,0.2c2.2,6.9,8.3,11.2,15.5,11.2c3,0,6.7-0.8,8.8-3.1
	c1.6-1.6,2.3-4,1.8-6.2c-0.5-2.1-1.9-3.9-3.6-5.4c-2.8-2.6-6.3-4.3-9.7-6.1c-3.3-1.9-6.7-3.9-9.1-6.8c-2.5-3-3.9-6.8-2.9-10.6
	c1.7-6,9.2-9.1,15-9.1c7.2,0,12.4,4.6,14.3,11.2c0.1,0.2,0,0.3-0.1,0.3l-0.4,0.1c-0.2,0.1-0.3,0-0.4-0.1c-1.9-5.5-7-9.2-12.8-9.2
	c-3.8,0-8.6,1.9-9.5,6.1c-0.5,1.7,0.1,3.6,1,5.2c1,1.6,2.3,2.7,3.7,3.8c2.8,2.1,5.9,3.6,9,5.2c3,1.7,5.9,3.5,8.3,6.1
	c2.3,2.6,3.9,5.9,3.7,9.4c-0.3,4.1-3,7.7-6.6,9.7c-2.7,1.4-5.7,2-8.6,2c-9.1,0-16.3-3.9-18.8-13.1c0-0.2,0.1-0.3,0.2-0.3
	C355.9,74.1,356.1,74.1,356.3,73.9z M391.1,39.1c0-0.2,0.1-0.3,0.3-0.3h9c7.4,0,25.9,0.1,32.1,0.1c0.2,0.1,0.3,0.2,0.3,0.3v1.5
	c0,0.2-0.1,0.3-0.3,0.3h-16.9c-0.2,0-0.3,0.1-0.3,0.3c0,9.2,0.1,34.1,0.1,45v0.4c0,0.2-0.1,0.3-0.3,0.3h-6.1c-0.2,0-0.3-0.1-0.3-0.3
	V41.4c0-0.2-0.1-0.3-0.3-0.3h-16.9c-0.2,0-0.3-0.1-0.3-0.3V39.1z M442.5,39.1c0-0.2,0.1-0.3,0.3-0.3h26.7c0.2,0,0.3,0.1,0.3,0.3V41
	c0,0.2-0.1,0.3-0.3,0.3h-20.1c-0.2,0-0.3,0.1-0.3,0.3v18.9c0,0.2,0.1,0.3,0.3,0.3h15.9c0.2,0,0.3,0.1,0.3,0.3V63
	c0,0.2-0.1,0.3-0.3,0.3h-15.8c-0.2,0-0.3,0.1-0.3,0.3v20.6c0,0.2,0.1,0.3,0.3,0.3h20.1c0.2,0,0.3,0.1,0.3,0.3v1.9
	c0,0.2-0.1,0.3-0.3,0.3h-26.7c-0.2,0-0.3-0.1-0.3-0.3V39.1z M479.7,39.1c0-0.2,0.1-0.3,0.3-0.3h16.3c8.1,0,18.5,2,18.5,12.1
	c0,10.1-9.6,12-17.9,12.2c-0.3,0-0.4,0.3-0.2,0.5l7.7,9.9l6.9,9.2c3,3.8,4.8,4.8,7.4,5c0.2,0,0.3,0.1,0.3,0.3v0.6
	c0,0.2-0.1,0.3-0.3,0.3h-4.8c-2.1,0-3.5,0.1-7-3c-1.1-1-2.7-2.6-4.7-5c-4.1-4.6-8.4-9.7-14.6-17.7h-1c-0.2,0-0.3,0.1-0.3,0.3v23.3
	c0,0.2-0.1,0.3-0.3,0.3H480c-0.2,0-0.3-0.1-0.3-0.3c0-6.8,0.1-23.3,0.1-36.2V39.1z M486.3,60.3c0,0.2,0.1,0.3,0.3,0.3h8.4
	c8.6,0,12.8-3.4,12.8-9.7c0-6.4-4.3-9.7-12.8-9.7h-8.4c-0.2,0-0.3,0.1-0.3,0.3V60.3z M523.1,73.9c0.2-0.1,0.3,0,0.4,0.2
	c2.2,6.9,8.3,11.2,15.5,11.2c3,0,6.7-0.8,8.8-3.1c1.6-1.6,2.3-4,1.8-6.2c-0.5-2.1-1.9-3.9-3.6-5.4c-2.8-2.6-6.3-4.3-9.7-6.1
	c-3.3-1.9-6.7-3.9-9.1-6.8c-2.5-3-3.9-6.8-2.9-10.6c1.7-6,9.2-9.1,15-9.1c7.2,0,12.4,4.6,14.3,11.2c0.1,0.2,0,0.3-0.1,0.3l-0.4,0.1
	c-0.2,0.1-0.3,0-0.4-0.1c-1.9-5.5-7-9.2-12.8-9.2c-3.8,0-8.6,1.9-9.5,6.1c-0.5,1.7,0.1,3.6,1,5.2c1,1.6,2.3,2.7,3.7,3.8
	c2.8,2.1,5.9,3.6,9,5.2c3,1.7,5.9,3.5,8.3,6.1c2.3,2.6,3.9,5.9,3.7,9.4c-0.3,4.1-3,7.7-6.6,9.7c-2.7,1.4-5.7,2-8.6,2
	c-9.1,0-16.3-3.9-18.8-13.1c0-0.2,0.1-0.3,0.2-0.3C522.7,74.1,522.9,74.1,523.1,73.9z M274,111.2c15.1,0.6,25.1,11.4,24.5,26.1
	c-0.6,14.6-11.2,24.7-26.4,24.1c-15.2-0.6-25.2-11.6-24.6-26.1C248.1,121,258.6,110.6,274,111.2z M290.8,141.5
	c1.1-15.2-4.5-26.7-17.1-28c-9.4-0.9-17.5,5.7-19,18.3c-1.7,13,4.5,26.3,17.2,27.8C281.2,160.6,290,154,290.8,141.5z M309.1,112.8
	c0-0.2,0.1-0.3,0.3-0.3h26.7c0.2,0,0.3,0.1,0.3,0.3v1.9c0,0.2-0.1,0.3-0.3,0.3H316c-0.2,0-0.3,0.1-0.3,0.3v18.9
	c0,0.2,0.1,0.3,0.3,0.3h15.9c0.2,0,0.3,0.1,0.3,0.3v1.9c0,0.2-0.1,0.3-0.3,0.3h-15.8c-0.2,0-0.3,0.1-0.3,0.3v23.1
	c0,0.2-0.1,0.3-0.3,0.3h-6.1c-0.2,0-0.3-0.1-0.3-0.3V112.8z M390.1,112.5c8,0,18.5,2.3,18.5,12.1c0,4.5-2.5,8.4-8,10.4
	c7.4,1.9,10.8,6.3,10.8,12.5c0,8-5.8,13.3-18.7,13.3h-17.3c-0.2,0-0.3-0.1-0.3-0.3v-47.6c0-0.2,0.1-0.3,0.3-0.3H390.1z M381.7,133.7
	c0,0.2,0.1,0.3,0.3,0.3h6.8c8.6,0,12.8-3.2,12.8-9.5c0-6.4-4.3-9.6-12.8-9.6h-6.8c-0.2,0-0.3,0.1-0.3,0.3V133.7z M391.6,158.3
	c8.3,0,12.8-4.1,12.8-11c0-6.9-4.8-10.7-12.8-10.7h-9.5c-0.2,0-0.3,0.1-0.3,0.3v21.1c0,0.2,0.1,0.3,0.3,0.3H391.6z M428.1,112.5
	c0.2,0,0.3,0.1,0.3,0.3v29.3c0,12.1,5.7,16.9,13,16.9c7.8,0,13.6-5.7,13.6-17v-29.2c0-0.2,0.1-0.3,0.3-0.3h1.9
	c0.2,0,0.3,0.1,0.3,0.3v28.7c0,13.5-7.3,19.9-17.4,19.9c-9.7,0-18.3-6.1-18.3-20.2v-28.4c0-0.2,0.1-0.3,0.3-0.3H428.1z M468,147.7
	c0.2-0.1,0.3,0,0.4,0.2c2.2,6.9,8.3,11.2,15.5,11.2c3,0,6.7-0.8,8.8-3.1c1.6-1.6,2.3-4,1.8-6.2c-0.5-2.1-1.9-3.9-3.6-5.4
	c-2.8-2.6-6.3-4.3-9.6-6.1c-3.3-1.9-6.7-3.9-9.1-6.8c-2.5-3-3.9-6.8-2.9-10.6c1.7-6,9.2-9.1,15-9.1c7.2,0,12.4,4.6,14.3,11.2
	c0.1,0.2,0,0.3-0.1,0.3l-0.4,0.1c-0.2,0.1-0.3,0-0.4-0.1c-1.9-5.5-7-9.2-12.8-9.2c-3.8,0-8.6,1.9-9.5,6.1c-0.5,1.7,0.1,3.6,1,5.2
	c1,1.6,2.3,2.7,3.7,3.8c2.8,2.1,5.9,3.6,9,5.2c3,1.7,5.9,3.5,8.3,6.1c2.3,2.6,3.9,5.9,3.7,9.4c-0.3,4.1-3,7.7-6.6,9.7
	c-2.7,1.4-5.7,2-8.6,2c-9.1,0-16.3-3.9-18.8-13.1c0-0.2,0.1-0.3,0.2-0.3C467.6,147.8,467.8,147.9,468,147.7z M511,112.8
	c0-0.2,0.1-0.3,0.3-0.3h6c0.2,0,0.3,0.1,0.3,0.3v47.6c0,0.2-0.1,0.3-0.3,0.3H511V112.8z M530.1,113.4c0-0.6,0.3-0.9,0.9-0.9h5.4
	c0.3,0,0.6,0.1,0.8,0.3l25.8,35.6c0.2,0.2,0.5,0.3,0.7,0.3c0.6,0,0.9-0.3,0.9-0.9v-34.5c0-0.6,0.3-0.9,0.9-0.9h0.7
	c0.6,0,0.9,0.3,0.9,0.9v46.5c0,0.6-0.3,0.9-0.9,0.9h-2.1c-0.3,0-0.6-0.1-0.8-0.3l-29.2-40.3c-0.2-0.2-0.5-0.3-0.7-0.3
	c-0.6,0-0.9,0.3-0.9,0.9v39.2c0,0.6-0.3,0.9-0.9,0.9H531c-0.6,0-0.9-0.3-0.9-0.9V113.4z M579.5,112.8c0-0.2,0.1-0.3,0.3-0.3h26.8
	c0.2,0,0.3,0.1,0.3,0.3v1.9c0,0.2-0.1,0.3-0.3,0.3h-20.1c-0.2,0-0.3,0.1-0.3,0.3v18.9c0,0.2,0.1,0.3,0.3,0.3h15.9
	c0.2,0,0.3,0.1,0.3,0.3v1.9c0,0.2-0.1,0.3-0.3,0.3h-15.8c-0.2,0-0.3,0.1-0.3,0.3v20.6c0,0.2,0.1,0.3,0.3,0.3h20.1
	c0.2,0,0.3,0.1,0.3,0.3v1.9c0,0.2-0.1,0.3-0.3,0.3h-26.8c-0.2,0-0.3-0.1-0.3-0.3V112.8z M614.8,147.7c0.2-0.1,0.3,0,0.4,0.2
	c2.2,6.9,8.3,11.2,15.5,11.2c3,0,6.7-0.8,8.8-3.1c1.6-1.6,2.3-4,1.8-6.2c-0.5-2.1-1.9-3.9-3.6-5.4c-2.8-2.6-6.3-4.3-9.6-6.1
	c-3.3-1.9-6.7-3.9-9.1-6.8c-2.5-3-3.9-6.8-2.9-10.6c1.7-6,9.2-9.1,15-9.1c7.2,0,12.4,4.6,14.3,11.2c0.1,0.2,0,0.3-0.1,0.3l-0.4,0.1
	c-0.2,0.1-0.3,0-0.4-0.1c-1.9-5.5-7-9.2-12.8-9.2c-3.8,0-8.6,1.9-9.5,6.1c-0.5,1.7,0.1,3.6,1,5.2c1,1.6,2.3,2.7,3.7,3.8
	c2.8,2.1,5.9,3.6,9,5.2c3,1.7,5.9,3.5,8.3,6.1c2.3,2.6,3.9,5.9,3.7,9.4c-0.3,4.1-3,7.7-6.6,9.7c-2.7,1.4-5.7,2-8.6,2
	c-9.1,0-16.3-3.9-18.8-13.1c0-0.2,0.1-0.3,0.2-0.3C614.4,147.8,614.6,147.9,614.8,147.7z M655.9,147.7c0.2-0.1,0.3,0,0.4,0.2
	c2.2,6.9,8.3,11.2,15.5,11.2c3,0,6.7-0.8,8.8-3.1c1.6-1.6,2.3-4,1.8-6.2c-0.5-2.1-1.9-3.9-3.6-5.4c-2.8-2.6-6.3-4.3-9.6-6.1
	c-3.3-1.9-6.7-3.9-9.1-6.8c-2.5-3-3.9-6.8-2.9-10.6c1.7-6,9.2-9.1,15-9.1c7.2,0,12.4,4.6,14.3,11.2c0.1,0.2,0,0.3-0.1,0.3l-0.4,0.1
	c-0.2,0.1-0.3,0-0.4-0.1c-1.9-5.5-7-9.2-12.8-9.2c-3.8,0-8.6,1.9-9.5,6.1c-0.5,1.7,0.1,3.6,1,5.2c1,1.6,2.3,2.7,3.7,3.8
	c2.8,2.1,5.9,3.6,9,5.2c3,1.7,5.9,3.5,8.3,6.1c2.3,2.6,3.9,5.9,3.7,9.4c-0.3,4.1-3,7.7-6.6,9.7c-2.7,1.4-5.7,2-8.6,2
	c-9.1,0-16.3-3.9-18.8-13.1c0-0.2,0.1-0.3,0.2-0.3C655.5,147.8,655.7,147.9,655.9,147.7z M112.9,9.4c0,7.3-5.9,13.2-13.2,13.2
	c-7.3,0-13.2-5.9-13.2-13.2V7.5h-79v92.2c0,24.6,9.6,47.8,27,65.2c17.4,17.4,40.6,27,65.2,27s47.8-9.6,65.2-27
	c17.4-17.4,27-40.6,27-65.2V7.5h-79V9.4z M67.8,131c0,0.1,0,0.2,0,0.3c0,0.1,0,0.2,0,0.3c0,0.2,0,0.4,0.1,0.6c0,0.1,0,0.2,0,0.2
	c0,0.2,0.1,0.5,0.1,0.7c0,0,0,0,0,0.1c0.1,0.3,0.1,0.5,0.2,0.8c0,0.1,0,0.1,0.1,0.2c0.1,0.2,0.1,0.4,0.2,0.6c0,0.1,0.1,0.2,0.1,0.3
	c0.1,0.2,0.1,0.3,0.2,0.5c0,0.1,0.1,0.2,0.1,0.3c0.1,0.2,0.1,0.3,0.2,0.5c0,0.1,0.1,0.2,0.1,0.3c0.1,0.1,0.1,0.3,0.2,0.4
	c0,0.1,0.1,0.2,0.1,0.3c0.1,0.1,0.1,0.3,0.2,0.4c0,0.1,0.1,0.2,0.1,0.3c0.1,0.2,0.2,0.3,0.3,0.4c0,0.1,0.1,0.2,0.1,0.2
	c0.1,0.2,0.2,0.4,0.4,0.5c0,0,0,0.1,0.1,0.1c0.1,0.2,0.3,0.4,0.4,0.6c0,0.1,0.1,0.1,0.1,0.2c0.1,0.1,0.2,0.3,0.3,0.4
	c0.1,0.1,0.1,0.1,0.2,0.2c0.1,0.1,0.2,0.2,0.3,0.4c0.1,0.1,0.1,0.2,0.2,0.2c0.1,0.1,0.2,0.2,0.3,0.3c0.1,0.1,0.2,0.2,0.2,0.2
	c0.1,0.1,0.2,0.2,0.3,0.3c0.1,0.1,0.2,0.1,0.2,0.2c0.1,0.1,0.2,0.2,0.4,0.3c0.1,0.1,0.2,0.1,0.2,0.2c0.1,0.1,0.3,0.2,0.4,0.3
	c0.1,0.1,0.1,0.1,0.2,0.2c0.2,0.1,0.3,0.2,0.5,0.4c0,0,0.1,0.1,0.1,0.1c0.2,0.1,0.4,0.3,0.7,0.4c0.1,0,0.1,0.1,0.2,0.1
	c0.2,0.1,0.3,0.2,0.5,0.3c0.1,0,0.2,0.1,0.3,0.1c0.1,0.1,0.3,0.2,0.4,0.2c0.1,0,0.2,0.1,0.3,0.1c0.1,0.1,0.3,0.1,0.4,0.2
	c0.1,0,0.2,0.1,0.3,0.1c0.1,0.1,0.3,0.1,0.4,0.2c0.1,0,0.2,0.1,0.3,0.1c0.2,0.1,0.3,0.1,0.5,0.2c0.1,0,0.2,0.1,0.3,0.1
	c0.2,0.1,0.3,0.1,0.5,0.1c0.1,0,0.2,0,0.3,0.1c0.2,0.1,0.4,0.1,0.6,0.2c0,0,0.1,0,0.1,0c0.3,0.1,0.5,0.1,0.8,0.1c0.1,0,0.1,0,0.2,0
	c0.2,0,0.4,0.1,0.5,0.1V158c-14.7-1-26.3-13.2-26.3-28.2c0-1.5,0.1-2.9,0.3-4.3L67.8,131z M89.2,152.1l10.5,10.5l10.5-10.5
	c1.6,2.2,2.6,4.9,2.6,7.9c0,7.3-5.9,13.2-13.2,13.2c-7.3,0-13.2-5.9-13.2-13.2C86.6,157,87.5,154.3,89.2,152.1z M91.9,149.4
	c2.2-1.6,4.9-2.6,7.9-2.6s5.7,1,7.9,2.6l-7.9,7.9L91.9,149.4z M117.4,146.6c0.3,0,0.5-0.1,0.8-0.1c0,0,0.1,0,0.1,0
	c0.2,0,0.4-0.1,0.6-0.1c0.1,0,0.2,0,0.3-0.1c0.2,0,0.3-0.1,0.5-0.1c0.1,0,0.2-0.1,0.3-0.1c0.2-0.1,0.3-0.1,0.5-0.2
	c0.1,0,0.2-0.1,0.3-0.1c0.1-0.1,0.3-0.1,0.4-0.2c0.1,0,0.2-0.1,0.3-0.1c0.1-0.1,0.3-0.1,0.4-0.2c0.1,0,0.2-0.1,0.3-0.1
	c0.1-0.1,0.3-0.1,0.4-0.2c0.1,0,0.2-0.1,0.3-0.1c0.2-0.1,0.3-0.2,0.5-0.3c0.1,0,0.1-0.1,0.2-0.1c0.2-0.1,0.4-0.3,0.7-0.4
	c0,0,0.1-0.1,0.1-0.1c0.2-0.1,0.3-0.2,0.5-0.4c0.1-0.1,0.1-0.1,0.2-0.2c0.1-0.1,0.3-0.2,0.4-0.3c0.1-0.1,0.2-0.1,0.2-0.2
	c0.1-0.1,0.2-0.2,0.4-0.3c0.1-0.1,0.2-0.1,0.2-0.2c0.1-0.1,0.2-0.2,0.3-0.3c0.1-0.1,0.2-0.1,0.2-0.2c0.1-0.1,0.2-0.2,0.3-0.3
	c0.1-0.1,0.1-0.2,0.2-0.2c0.1-0.1,0.2-0.2,0.3-0.4c0.1-0.1,0.1-0.1,0.2-0.2c0.1-0.1,0.2-0.3,0.3-0.4c0-0.1,0.1-0.1,0.1-0.2
	c0.2-0.2,0.3-0.4,0.4-0.6c0,0,0-0.1,0.1-0.1c0.1-0.2,0.2-0.4,0.3-0.5c0-0.1,0.1-0.1,0.1-0.2c0.1-0.1,0.2-0.3,0.3-0.4
	c0-0.1,0.1-0.2,0.1-0.3c0.1-0.1,0.1-0.3,0.2-0.4c0-0.1,0.1-0.2,0.1-0.3c0.1-0.1,0.1-0.3,0.2-0.4c0-0.1,0.1-0.2,0.1-0.3
	c0.1-0.1,0.1-0.3,0.2-0.5c0-0.1,0.1-0.2,0.1-0.3c0.1-0.2,0.1-0.3,0.2-0.5c0-0.1,0.1-0.2,0.1-0.3c0.1-0.2,0.1-0.4,0.2-0.6
	c0-0.1,0-0.1,0.1-0.2c0.1-0.3,0.1-0.5,0.2-0.8c0,0,0,0,0-0.1c0-0.2,0.1-0.5,0.1-0.7c0-0.1,0-0.2,0-0.2c0-0.2,0.1-0.4,0.1-0.6
	c0-0.1,0-0.2,0-0.3c0-0.1,0-0.2,0-0.3l11-5.5c0.2,1.4,0.3,2.9,0.3,4.3c0,14.9-11.7,27.2-26.3,28.2v-11.3c0.2,0,0.4,0,0.5-0.1
	C117.3,146.6,117.3,146.6,117.4,146.6z M188.2,39.5c-14.5,3.1-25.2,9.8-32.5,20.2c3.1-17.3,18.3-24.7,31.8-31.1
	c0.2-0.1,0.5-0.2,0.7-0.4V39.5z M188.2,24.1c-0.8,0.4-1.6,0.8-2.4,1.1c-10.5,5-22.8,11-29.6,22.2l0-0.8c0.2-7.8,4.2-15,10.6-19.4
	l21.3-14.3V24.1z M151.7,76.2l0.1,0c2.2-6.6,8.6-26.5,36.4-32.8V55h-1.9c-8.3,0-16,3.2-21.9,9.1l-13.2,13.2
	C151.4,76.9,151.5,76.5,151.7,76.2z M141.9,146.8h32.8c-2,3.1-4.1,6.1-6.5,9l-27.4-7.2C141.1,148,141.5,147.4,141.9,146.8z
	 M143.9,143c0.5-1.2,1-2.4,1.4-3.7l36.2-5.8c-1.3,3.3-2.9,6.5-4.6,9.6H143.9z M183.1,129.4l-36.8,5.9c0.2-1.3,0.4-2.7,0.4-4
	l39.5-12.9C185.4,122.1,184.4,125.8,183.1,129.4z M187,114.2l-40.3,13.2c-0.1-1.2-0.3-2.4-0.5-3.6l41.9-21
	C188,106.7,187.6,110.4,187,114.2z M73.4,159.8l-17.6,16.7c-3.4-2-6.8-4.2-9.9-6.6L67,156.5C69,157.8,71.1,158.9,73.4,159.8z
	 M77.6,161c1.7,0.4,3.5,0.7,5.3,0.8c0,0.7,0.1,1.5,0.2,2.2l-14,18.7c-3.4-1.2-6.6-2.7-9.8-4.3L77.6,161z M99.7,187.4
	c-4-4.3-7.2-8.8-9.5-13.4c2.7,1.8,6,2.9,9.5,2.9s6.8-1.1,9.5-2.9C107,178.6,103.8,183.1,99.7,187.4z M84.2,168.9
	c0.8,2.8,2,5.6,3.6,8.5c0,0,0,0,0,0l-3.8,9.4c-3.8-0.7-7.5-1.6-11.1-2.8L84.2,168.9z M90.2,181.4c1.7,2.6,3.5,4.8,5.1,6.7
	c-2.5-0.1-5-0.4-7.5-0.7L90.2,181.4z M109.3,181.4l2.4,6c-2.5,0.3-5,0.6-7.5,0.7C105.8,186.2,107.6,183.9,109.3,181.4z M111.7,177.4
	C111.7,177.3,111.7,177.3,111.7,177.4c1.6-2.9,2.8-5.7,3.6-8.5l11.3,15.2c-3.6,1.2-7.4,2.1-11.1,2.8L111.7,177.4z M116.4,164
	c0.1-0.8,0.2-1.5,0.2-2.2c1.8-0.1,3.6-0.4,5.3-0.8l18.3,17.4c-3.2,1.6-6.5,3.1-9.8,4.3L116.4,164z M126.1,159.8
	c2.3-0.9,4.4-2,6.4-3.3l21.2,13.4c-3.2,2.5-6.5,4.7-9.9,6.6L126.1,159.8z M52.7,131.3c0.1,1.4,0.2,2.7,0.4,4l-36.8-5.9
	c-1.3-3.6-2.3-7.3-3.1-11L52.7,131.3z M54.1,139.3c0.4,1.3,0.9,2.5,1.4,3.7h-33c-1.7-3.1-3.3-6.3-4.6-9.6L54.1,139.3z M57.6,146.8
	c0.4,0.6,0.8,1.2,1.2,1.8l-27.4,7.2c-2.4-2.9-4.5-5.9-6.5-9H57.6z M52.8,127.4l-40.3-13.2c-0.6-3.7-1-7.5-1.1-11.3l41.9,21
	C53,125,52.9,126.2,52.8,127.4z M34.1,159l27.4-7.2c0.8,0.8,1.6,1.6,2.4,2.3l-21,13.3c-1.9-1.6-3.8-3.3-5.6-5.1
	C36.1,161.2,35.1,160.1,34.1,159z M162.3,162.3c-1.8,1.8-3.6,3.5-5.6,5.1l-21-13.3c0.8-0.7,1.6-1.5,2.4-2.3l27.4,7.2
	C164.4,160.1,163.4,161.2,162.3,162.3z M183.9,11.3l-19.1,12.9c-7.5,5-12.1,13.4-12.3,22.4l0,1.1c-0.1,3.9-0.2,8-0.7,12.3
	c0,0,0,0,0,0l0,0c-1.2,10.1-4.5,21.1-14.9,31.6l0,0l-14.3,14.3l2.7,2.7l41.9-41.9c5.1-5.1,12-8,19.2-8h1.9v12.1h-5.5
	c-5.9,0-11.6,2.4-15.7,6.6l-37.1,37.9c-1.9,1.9-4.3,2.9-7,3c0,0,0,0-0.1,0c-2.6,0-5.1-1-7-2.9c-1.9-1.9-2.9-4.5-2.9-7.2
	c0.1-2.7,1.2-5.2,3.2-7.1l3.9-3.5c8.4-7.6,24-21.7,24-40.8c0-23.6-12.5-33-17.8-35.9l-2.7-1.5l0,3.1c-0.1,8.8-11.9,15.1-17,17.4
	l-1.7,0.8l0.7,1.7c0.9,2.1,3.7,7.2,3.8,7.4l0.9,1.6l15.7-7.8c0.7,1.8,1.9,4.9,2.5,8.3c-13.8,9.8-21,18.6-19.3,35.4l0.3,3.3l2.7-1.9
	c17.9-13.1,20.5-25.5,20.5-31.7c0-8.1-4-16.3-4.1-16.7l-0.8-1.7l-15.9,7.9c-0.6-1.1-1.4-2.6-2-3.9c6.4-3.1,15.1-8.7,17.1-16.8
	c5.3,3.8,13.5,12.6,13.5,31.1c0,17.4-14.8,30.8-22.7,38l-3.9,3.5c-2.8,2.5-4.4,6-4.5,9.8c-0.1,3.8,1.3,7.3,4,10c2.6,2.6,6,4,9.6,4
	c0,0,0.1,0,0.1,0c3.7,0,7.1-1.5,9.7-4.1l37.1-37.9c3.4-3.5,8.2-5.5,13-5.5h5.5v24L128,128.7v1.2c0,7.3-5.9,13.2-13.2,13.2h-1.9v6.3
	c-3.1-3.8-7.9-6.3-13.2-6.3c-5.3,0-10.1,2.5-13.2,6.3V143h-1.9c-7.3,0-13.2-5.9-13.2-13.2v-1.2L11.3,98.6V11.3h71.6
	c0.9,8.5,8.1,15.1,16.8,15.1c8.7,0,15.9-6.6,16.8-15.1H183.9z M128.9,56.2c0,0.2,0,0.5,0,0.7c0,11.3-9.2,20.9-16.2,26.6
	C112.4,71.2,118,64.1,128.9,56.2z M90.8,55.6c0-3.1-2.5-5.7-5.7-5.7H73.5v3.5h11.7c1.2,0,2.2,1,2.2,2.2c0,1.2-1,2.2-2.2,2.2h-7.8
	c-7.4,0-13.5,6.1-13.5,13.6v7.4c-3.3,0.3-6.1,1.7-8.4,3.4c-0.4-1.1-0.9-2.1-1.4-3.2c-4.2-9.8-8.6-19.9,1.7-29.5
	c7.9-0.2,12.7-4.2,13-4.3l0.6-0.5v-9l-1.6-0.3c-3-0.5-5.4-2.8-6-5.7h5.9c5.3,0,9.6-4.3,9.6-9.6h-3.5c0,3.4-2.7,6.2-6.1,6.2H39.4
	c-3.3,0-6.1-2.8-6.1-6.2h-3.5c0,5.3,4.3,9.6,9.6,9.6h5c-5.5,4.9-14.5,15.3-13.8,30c0.4,8.7,4.2,14.8,7.9,20.8
	c3.6,5.8,6.9,11.2,6.9,18.7H49c0-3,5-15.4,14.9-16.7v22.2l3.5,0.2c1-6.9,4.6-14.9,7.9-17.7c2.7,3,5.4,7.7,7.7,15
	c3.3,10.3,4.3,20.7,4.3,20.8l3.5-0.2V71.4c0-4.1-1.8-7.7-4.6-10.2C88.9,60.7,90.8,58.4,90.8,55.6z M50,29.7h8.2
	c0.7,4.2,3.6,7.6,7.7,8.8v4.4c-1.4,1-5.3,3.1-10.8,3.1c-7.1,0-12.4-2.9-15.6-5.1C43.5,34.6,48.5,30.7,50,29.7z M47.9,91.4
	c-1.4-4.8-3.9-8.9-6.4-12.8c-3.6-5.8-7-11.3-7.4-19.1c-0.3-6,1.3-11.3,3.6-15.6c3,2.1,7.5,4.6,13.4,5.3c-9.1,10.7-4.3,22-0.3,31.2
	c0.6,1.5,1.3,2.9,1.8,4.3c-0.8,0.9-1.6,1.8-2.2,2.6C49.5,88.6,48.6,90,47.9,91.4z M67.4,92.8V82.4c1.7,0.3,3.5,1,5.3,2.4
	C70.8,86.6,68.9,89.5,67.4,92.8z M87.4,71.4v32.8c-3.2-11.4-9.2-24.1-19.9-25.4v-7.5c0-5.6,4.5-10.1,10-10.1S87.4,65.8,87.4,71.4z
	 M23.8,59.4c-0.4-7.2,1.6-14.2,5.8-20.7l-2.9-1.9c-4.6,7.1-6.7,14.8-6.3,22.8c0.5,8.9,4.4,15.5,8.2,21.9c3.4,5.7,6.6,11.1,6.6,17.5
	h3.5c0-7.3-3.5-13.1-7.1-19.3C28,73.7,24.2,67.5,23.8,59.4z M105.4,0v9.4c0,3.1-2.5,5.6-5.6,5.6s-5.6-2.5-5.6-5.6V0H0v99.7
	c0,26.6,10.4,51.7,29.2,70.5c18.8,18.8,43.9,29.2,70.5,29.2s51.7-10.4,70.5-29.2c18.8-18.8,29.2-43.9,29.2-70.5V0H105.4z
	 M167.6,167.6c-18.1,18.1-42.2,28.1-67.9,28.1s-49.7-10-67.9-28.1C13.7,149.5,3.8,125.4,3.8,99.7v-96h86.6v5.6
	c0,5.2,4.2,9.4,9.4,9.4s9.4-4.2,9.4-9.4V3.8h86.6v96C195.7,125.4,185.7,149.5,167.6,167.6z"/>
</svg>
