<?xml version="1.0" encoding="utf-8"?>
<!-- Generator: Adobe Illustrator 27.7.0, SVG Export Plug-In . SVG Version: 6.00 Build 0)  -->
<svg version="1.1" id="Layer_1" xmlns="http://www.w3.org/2000/svg" xmlns:xlink="http://www.w3.org/1999/xlink" x="0px" y="0px"
	 viewBox="0 0 512.9 258.3" style="enable-background:new 0 0 512.9 258.3;" xml:space="preserve">
<style type="text/css">
	.st0{fill:#A5997A;}
</style>
<path class="st0" d="M341,85.9l-0.6,0.3v0.7c0,22.8-18.6,41.4-41.4,41.4h-1.1v29.8c-5.8-17.3-22.2-29.8-41.4-29.8
	s-35.6,12.5-41.4,29.8v-29.8h-1.1c-22.8,0-41.4-18.6-41.4-41.4v-0.7L1.6,0.8L0,0v1.8c0,141.4,115,256.4,256.4,256.4
	s256.4-115,256.4-256.4V0L341,85.9z M383,86.9c0,45.9-37.1,83.3-82.8,83.9v-40.3c0.2,0,0.4,0,0.6,0c0.3,0,0.7,0,1,0
	c0.4,0,0.8-0.1,1.2-0.1c0.3,0,0.7-0.1,1-0.1c0.4,0,0.8-0.1,1.2-0.2c0.3,0,0.6-0.1,1-0.1c0.4-0.1,0.8-0.1,1.2-0.2
	c0.3-0.1,0.6-0.1,1-0.2c0.4-0.1,0.8-0.2,1.1-0.3c0.3-0.1,0.6-0.2,0.9-0.2c0.4-0.1,0.8-0.2,1.1-0.3c0.3-0.1,0.6-0.2,0.9-0.3
	c0.4-0.1,0.7-0.2,1.1-0.4c0.3-0.1,0.6-0.2,0.9-0.3c0.4-0.1,0.7-0.3,1.1-0.4c0.3-0.1,0.6-0.2,0.9-0.4c0.3-0.2,0.7-0.3,1-0.5
	c0.3-0.1,0.6-0.3,0.9-0.4c0.3-0.2,0.7-0.3,1-0.5c0.3-0.1,0.6-0.3,0.8-0.4c0.3-0.2,0.7-0.4,1-0.6c0.3-0.2,0.6-0.3,0.8-0.5
	c0.3-0.2,0.6-0.4,0.9-0.6c0.3-0.2,0.5-0.3,0.8-0.5c0.3-0.2,0.6-0.4,0.9-0.6c0.3-0.2,0.5-0.4,0.8-0.6c0.3-0.2,0.6-0.5,0.9-0.7
	c0.3-0.2,0.5-0.4,0.8-0.6c0.3-0.2,0.6-0.5,0.8-0.7c0.2-0.2,0.5-0.4,0.7-0.6c0.3-0.2,0.5-0.5,0.8-0.8c0.2-0.2,0.5-0.4,0.7-0.7
	c0.3-0.3,0.5-0.5,0.7-0.8c0.2-0.2,0.5-0.5,0.7-0.7c0.2-0.3,0.5-0.5,0.7-0.8c0.2-0.2,0.4-0.5,0.6-0.7c0.2-0.3,0.5-0.6,0.7-0.9
	c0.2-0.3,0.4-0.5,0.6-0.8c0.2-0.3,0.5-0.6,0.7-1c0.4-0.5,0.7-1,1.1-1.6c0.2-0.3,0.4-0.6,0.6-0.9c0.2-0.3,0.3-0.6,0.5-0.9
	c0.2-0.3,0.4-0.6,0.5-0.9c0.2-0.3,0.3-0.6,0.5-0.9c0.2-0.3,0.3-0.6,0.5-0.9c0.2-0.3,0.3-0.6,0.4-0.9c0.1-0.3,0.3-0.6,0.4-1
	c0.1-0.3,0.3-0.6,0.4-1c0.1-0.3,0.3-0.7,0.4-1c0.1-0.3,0.2-0.7,0.3-1c0.1-0.3,0.2-0.7,0.3-1c0.1-0.3,0.2-0.7,0.3-1
	c0.1-0.3,0.2-0.7,0.3-1c0.1-0.3,0.2-0.7,0.2-1c0.1-0.4,0.2-0.7,0.2-1.1c0.1-0.3,0.1-0.7,0.2-1c0.1-0.4,0.1-0.7,0.2-1.1
	c0.1-0.3,0.1-0.7,0.1-1c0.1-0.4,0.1-0.7,0.1-1.1c0-0.3,0.1-0.7,0.1-1c0-0.4,0.1-0.8,0.1-1.1c0-0.3,0-0.7,0-1.1c0-0.3,0-0.5,0-0.8
	l38.2-19.1C382.3,74.5,383,80.7,383,86.9z M385.2,88l121.1-39.7c-2.6,14.1-6.4,27.9-11.3,41.1l-112.3,18.1
	C384.3,101.3,385.1,94.7,385.2,88z M373.3,130.6h102.2c-7.2,12.1-15.3,23.6-24.3,34.3l-86.1-22.7
	C368.1,138.6,370.9,134.7,373.3,130.6z M374.6,128.4c3.2-5.8,5.7-11.9,7.5-18.4l112-18c-4.8,12.7-10.6,24.8-17.3,36.5H374.6z
	 M127.7,88c0.1,6.7,0.9,13.2,2.5,19.5L17.8,89.4C13,76.2,9.2,62.5,6.5,48.3L127.7,88z M130.8,109.9c1.8,6.5,4.3,12.6,7.5,18.4H36.1
	c-6.7-11.6-12.5-23.8-17.3-36.5L130.8,109.9z M139.6,130.6c2.4,4.1,5.2,8,8.2,11.6L61.7,165c-9-10.7-17.1-22.2-24.3-34.3H139.6z
	 M129.9,86.9c0-6.2,0.7-12.4,2-18.4l38.2,19.1c0,0.3,0,0.5,0,0.8c0,0.4,0,0.7,0,1.1c0,0.4,0.1,0.8,0.1,1.1c0,0.3,0.1,0.7,0.1,1
	c0,0.4,0.1,0.7,0.1,1.1c0,0.3,0.1,0.7,0.1,1c0.1,0.4,0.1,0.7,0.2,1.1c0.1,0.3,0.1,0.7,0.2,1c0.1,0.4,0.2,0.7,0.2,1.1
	c0.1,0.3,0.2,0.7,0.2,1c0.1,0.4,0.2,0.7,0.3,1c0.1,0.3,0.2,0.7,0.3,1c0.1,0.3,0.2,0.7,0.3,1c0.1,0.3,0.2,0.7,0.3,1
	c0.1,0.3,0.3,0.7,0.4,1c0.1,0.3,0.2,0.6,0.4,1c0.1,0.3,0.3,0.6,0.4,1c0.1,0.3,0.3,0.6,0.4,0.9c0.2,0.3,0.3,0.6,0.5,0.9
	c0.2,0.3,0.3,0.6,0.5,0.9c0.2,0.3,0.4,0.6,0.5,0.9c0.2,0.3,0.3,0.6,0.5,0.9c0.2,0.3,0.4,0.6,0.6,0.9c0.3,0.5,0.7,1,1.1,1.6
	c0.2,0.3,0.4,0.6,0.7,1c0.2,0.3,0.4,0.5,0.6,0.8c0.2,0.3,0.4,0.6,0.7,0.9c0.2,0.3,0.4,0.5,0.6,0.7c0.2,0.3,0.5,0.6,0.7,0.8
	c0.2,0.2,0.5,0.5,0.7,0.7c0.2,0.3,0.5,0.5,0.7,0.8c0.2,0.2,0.5,0.5,0.7,0.7c0.3,0.3,0.5,0.5,0.8,0.8c0.2,0.2,0.5,0.4,0.7,0.6
	c0.3,0.2,0.5,0.5,0.8,0.7c0.3,0.2,0.5,0.4,0.8,0.6c0.3,0.2,0.6,0.5,0.9,0.7c0.3,0.2,0.5,0.4,0.8,0.6c0.3,0.2,0.6,0.4,0.9,0.6
	c0.3,0.2,0.5,0.4,0.8,0.5c0.3,0.2,0.6,0.4,0.9,0.6c0.3,0.2,0.5,0.3,0.8,0.5c0.3,0.2,0.6,0.4,1,0.6c0.3,0.2,0.6,0.3,0.8,0.4
	c0.3,0.2,0.7,0.4,1,0.5c0.3,0.1,0.6,0.3,0.9,0.4c0.3,0.2,0.7,0.3,1,0.5c0.3,0.1,0.6,0.2,0.9,0.4c0.4,0.1,0.7,0.3,1.1,0.4
	c0.3,0.1,0.6,0.2,0.9,0.3c0.4,0.1,0.7,0.3,1.1,0.4c0.3,0.1,0.6,0.2,0.9,0.3c0.4,0.1,0.7,0.2,1.1,0.3c0.3,0.1,0.6,0.2,0.9,0.2
	c0.4,0.1,0.8,0.2,1.1,0.3c0.3,0.1,0.6,0.1,1,0.2c0.4,0.1,0.8,0.1,1.2,0.2c0.3,0.1,0.6,0.1,1,0.1c0.4,0.1,0.8,0.1,1.2,0.2
	c0.3,0,0.7,0.1,1,0.1c0.4,0,0.8,0.1,1.2,0.1c0.3,0,0.7,0,1,0c0.2,0,0.4,0,0.6,0v40.3C167,170.3,129.9,132.9,129.9,86.9z
	 M256.4,255.5c-19.4-19.6-32.9-42-38.5-62.9c7.4,13.7,21.9,23.1,38.5,23.1s31.2-9.4,38.5-23.1C289.4,213.5,275.8,235.9,256.4,255.5z
	 M190,169.8l-57,54.2c-12.7-7.1-24.7-15.2-35.9-24.3l67-42.4C171.8,162.8,180.6,167.1,190,169.8z M192.5,170.5
	c6.5,1.7,13.3,2.6,20.2,2.7c0.1,3.9,0.4,7.7,1,11.5l-42.4,56.7c-12.6-4.5-24.7-9.9-36.3-16.3L192.5,170.5z M214.3,187.7
	c2.4,12,7.1,23.2,12.8,33.2l-12.6,31.6c-14-2.3-27.7-5.8-40.9-10.4L214.3,187.7z M228.6,223.4C237,237.6,247,249,253.7,256
	c-12.5-0.1-24.8-1.2-36.9-3.1L228.6,223.4z M284.3,223.4l11.8,29.5c-12,1.9-24.4,2.9-36.9,3.1C265.9,249,275.9,237.6,284.3,223.4z
	 M285.7,220.9c5.7-10,10.4-21.2,12.8-33.2l40.7,54.4c-13.2,4.6-26.8,8-40.9,10.4L285.7,220.9z M299.1,184.6c0.6-3.8,1-7.6,1-11.5
	c7-0.1,13.8-1,20.2-2.7l57.5,54.6c-11.6,6.3-23.7,11.8-36.3,16.3L299.1,184.6z M322.9,169.8c9.4-2.7,18.2-7,26-12.6l67,42.4
	c-11.2,9.1-23.3,17.2-35.9,24.3L322.9,169.8z M284.9,142l-28.4,28.4L228,142c7.4-7,17.4-11.4,28.4-11.4
	C267.5,130.6,277.5,135,284.9,142z M226.4,143.6l30.1,30.1l30.1-30.1c7,7.4,11.4,17.4,11.4,28.4c0,22.8-18.6,41.4-41.4,41.4
	c-22.8,0-41.4-18.6-41.4-41.4C215,161,219.4,151,226.4,143.6z M129.9,67.5c-1.4,5.9-2.1,12-2.2,18.1L6.1,45.8
	C3.7,32.1,2.4,18,2.3,3.7L129.9,67.5z M63.3,166.9l86.1-22.7c3.8,4.3,8,8.2,12.6,11.6l-66.9,42.3C83.7,188.7,73,178.2,63.3,166.9z
	 M417.7,198.1l-66.9-42.3c4.6-3.4,8.8-7.3,12.6-11.6l86.1,22.7C439.9,178.2,429.2,188.7,417.7,198.1z M506.8,45.8L385.2,85.6
	c-0.1-6.1-0.8-12.2-2.2-18.1L510.6,3.7C510.5,18,509.2,32.1,506.8,45.8z"/>
</svg>
